<svg viewBox="0 0 512 512" xml:space="preserve" xmlns="http://www.w3.org/2000/svg"><g fill="#ffffff" class="fill-303a3f"><path d="M137.8 511.9H69.5c-10 0-18.1-8.2-18.1-18.1V354c0-10 8.2-18.1 18.1-18.1h68.3c10 0 18.1 8.2 18.1 18.1v139.8c.1 10-8.1 18.1-18.1 18.1zM286.9 511.9h-61.8c-11.7 0-21.4-9.6-21.4-21.4V288.8c0-11.7 9.6-21.4 21.4-21.4h61.8c11.7 0 21.4 9.6 21.4 21.4v201.7c0 11.8-9.6 21.4-21.4 21.4zM436.5 511.9h-56.3c-13.3 0-24.1-10.9-24.1-24.1V224.3c0-13.3 10.9-24.1 24.1-24.1h56.3c13.3 0 24.1 10.9 24.1 24.1v263.5c0 13.3-10.8 24.1-24.1 24.1zM445.1 0c-22 .9-39.1 19.5-38.2 41.6l-101.6 99.9-86.6-75.8-158.5 159c-20.4 2.6-35.7 20.2-34.9 41.1.9 22 19.6 39.1 41.6 38.2s39.1-19.6 38.2-41.6c-.1-1.8-.5-3.5-.8-5.3l119.3-114.5 83.7 73.3L446 79.7c.8 0 1.6.2 2.4.1 22-.9 39.1-19.6 38.2-41.6-.9-22-19.5-39.1-41.5-38.2z"></path></g></svg>